<svg width="23" height="22" viewBox="0 0 23 22" fill="none" xmlns="http://www.w3.org/2000/svg">
<path d="M19.36 12.6719V20.9026C19.36 21.1998 19.2735 21.457 19.1007 21.6742C18.9278 21.8914 18.7232 22 18.4866 22H13.2467V15.4154H9.75334V22H4.51337C4.27684 22 4.07216 21.8914 3.89931 21.6742C3.72646 21.457 3.64004 21.1998 3.64004 20.9026V12.6719C3.64004 12.6604 3.64232 12.6433 3.64686 12.6204C3.65141 12.5976 3.65369 12.5804 3.65369 12.569L11.5 4.44115L19.3463 12.569C19.3554 12.5918 19.36 12.6261 19.36 12.6719ZM22.403 11.4887L21.5569 12.7576C21.4841 12.8605 21.3886 12.9234 21.2704 12.9462H21.2294C21.1112 12.9462 21.0156 12.9062 20.9429 12.8262L11.5 2.93219L2.05713 12.8262C1.94797 12.9176 1.8388 12.9577 1.72963 12.9462C1.61137 12.9234 1.51585 12.8605 1.44307 12.7576L0.597037 11.4887C0.524259 11.3744 0.492419 11.2401 0.501516 11.0857C0.510613 10.9314 0.560648 10.8085 0.65162 10.7171L10.4629 0.44583C10.754 0.14861 11.0997 0 11.5 0C11.9003 0 12.246 0.14861 12.5371 0.44583L15.8666 3.94388V0.600156C15.8666 0.440114 15.9076 0.308652 15.9895 0.205768C16.0713 0.102884 16.1759 0.0514419 16.3033 0.0514419H18.9233C19.0507 0.0514419 19.1553 0.102884 19.2371 0.205768C19.319 0.308652 19.36 0.440114 19.36 0.600156V7.59626L22.3484 10.7171C22.4394 10.8085 22.4894 10.9314 22.4985 11.0857C22.5076 11.2401 22.4757 11.3744 22.403 11.4887Z" fill="white"/>
</svg>
