<?xml version="1.0" encoding="UTF-8"?>
<svg version="1.1" xmlns="http://www.w3.org/2000/svg" width="180" height="180">
<path d="M0 0 C59.4 0 118.8 0 180 0 C180 59.4 180 118.8 180 180 C120.6 180 61.2 180 0 180 C0 120.6 0 61.2 0 0 Z " fill="#FB370F" transform="translate(0,0)"/>
<path d="M0 0 C1.98 0 3.96 0 6 0 C6.33 0.99 6.66 1.98 7 3 C9.64 3 12.28 3 15 3 C15 2.34 15 1.68 15 1 C17.31 1.33 19.62 1.66 22 2 C22 3.65 22 5.3 22 7 C22.78375 7.309375 23.5675 7.61875 24.375 7.9375 C27 9 27 9 29 10 C30.66194453 10.35613097 32.328451 10.69208308 34 11 C34.50806075 13.54030376 35.0152607 16.08011868 35.5 18.625 C35.98065971 21.13198898 35.98065971 21.13198898 37 24 C38.98045559 24.66179847 38.98045559 24.66179847 41 25 C42 26 42 26 42.0625 28.5625 C42.041875 29.366875 42.02125 30.17125 42 31 C40.515 31.495 40.515 31.495 39 32 C39.57156788 37.95044232 39.57156788 37.95044232 40.6875 43.8125 C41.07278457 46.50949198 40.42852077 47.7311729 39 50 C39.66 50 40.32 50 41 50 C39.17498904 53.77295011 37.1258834 57.41655832 35.0625 61.0625 C34.71509766 61.68705078 34.36769531 62.31160156 34.00976562 62.95507812 C30.59407801 68.98238377 30.59407801 68.98238377 28 71 C27.34 71 26.68 71 26 71 C26 71.66 26 72.32 26 73 C24.04174127 73.02694851 22.08337774 73.04637218 20.125 73.0625 C18.48917969 73.07990234 18.48917969 73.07990234 16.8203125 73.09765625 C14 73 14 73 12 72 C11.84885235 65.04720829 15.40585007 61.82008518 20.06640625 56.94140625 C21.02353516 55.98041016 21.02353516 55.98041016 22 55 C18.13857796 55.78383567 15.98671756 57.42810432 13 60 C12.67 58.35 12.34 56.7 12 55 C18.27893479 49.24581769 18.27893479 49.24581769 21.75 48.0625 C24.59038222 46.7212084 25.43643662 45.09991621 26.4921875 42.1875 C28.09046591 35.30260839 27.77502085 28.81752719 24.20703125 22.65234375 C21.54561408 19.00904451 18.095511 16.74990016 14 15 C8.06246256 14.24556042 3.05789073 14.58886439 -2 18 C-6.2507993 21.76775393 -8.73794702 24.49830814 -9.3359375 30.20703125 C-9.41429661 37.43957748 -9.28914567 42.10242471 -5 48 C-5 48.66 -5 49.32 -5 50 C-4.278125 50.103125 -3.55625 50.20625 -2.8125 50.3125 C1.05979633 51.25906132 3.9848632 52.54980458 6.3125 55.875 C7.11268687 58.34830486 7.14354627 60.41616706 7 63 C7.99 63 8.98 63 10 63 C10.495 62.01 10.495 62.01 11 61 C10.34 63.97 9.68 66.94 9 70 C7.1811048 67.74803452 5.9250882 65.8186346 4.8125 63.125 C2.40560954 58.97518887 -0.78160864 56.28327517 -5 54 C-6.32 54 -7.64 54 -9 54 C-8.113125 54.37125 -7.22625 54.7425 -6.3125 55.125 C-1.06740543 58.09392145 2.27711416 62.20483852 4 68 C4 68.99 4 69.98 4 71 C-0.01165936 73.00582968 -4.64825359 72.60792031 -9 72 C-14.81700535 69.26956892 -17.35900755 64.01942659 -19.859375 58.3671875 C-20.92552732 55.94401451 -20.92552732 55.94401451 -22.640625 53.8828125 C-24 52 -24 52 -24 49 C-22.35 48.34 -20.7 47.68 -19 47 C-19 46.34 -19 45.68 -19 45 C-20.65 44.67 -22.3 44.34 -24 44 C-24 42.02 -24 40.04 -24 38 C-22.515 37.505 -22.515 37.505 -21 37 C-21.14049518 35.52031676 -21.28754826 34.04125484 -21.4375 32.5625 C-21.55931641 31.32693359 -21.55931641 31.32693359 -21.68359375 30.06640625 C-21.78930815 28.01337975 -21.78930815 28.01337975 -23 27 C-23.1875 24.5625 -23.1875 24.5625 -23 22 C-22.34 21.34 -21.68 20.68 -21 20 C-19.68 20 -18.36 20 -17 20 C-16.0350611 16.71920775 -15.09442223 13.48260249 -14.4375 10.125 C-14 8 -14 8 -13 7 C-10.98688551 6.60430892 -8.96402792 6.25747809 -6.9375 5.9375 C-5.83277344 5.76089844 -4.72804688 5.58429687 -3.58984375 5.40234375 C-2.73519531 5.26957031 -1.88054687 5.13679688 -1 5 C-0.67 3.35 -0.34 1.7 0 0 Z " fill="#FA3F18" transform="translate(81,51)"/>
<path d="M0 0 C5.94935204 2.4384249 10.35898076 6.46229548 13.078125 12.32421875 C15.09190901 18.16931216 14.91535879 24.73041329 12.5 30.4375 C10.39405514 34.13611284 7.79730496 35.58071494 3.90234375 37.11328125 C1.91233735 37.90287814 1.91233735 37.90287814 0.4765625 39.57421875 C-1 41 -1 41 -4.5625 41.5 C-10.79860682 41.2123567 -16.44600865 38.69683203 -20.74609375 34.15625 C-24.99438271 27.70559028 -25.08195581 20.46813398 -24 13 C-22.29948381 8.13817177 -19.72033394 5.17215901 -15.3125 2.5625 C-14.219375 2.046875 -13.12625 1.53125 -12 1 C-8.25060513 -0.87469743 -4.08251038 -0.53120384 0 0 Z " fill="#FA4621" transform="translate(95,65)"/>
<path d="M0 0 C3.92288321 2.11232173 6.65013043 4.2227025 9 8 C9.90014358 12.55654078 10.05077796 17.10661707 7.7578125 21.23828125 C4.40884168 25.2620447 2.06333531 26.72224332 -3.25 27.4375 C-8.29290816 26.84916071 -10.70751125 24.74631828 -14 21 C-16.10751267 17.33476058 -16.51324557 14.19150546 -16 10 C-12.23001741 3.01855076 -8.25316695 -1.15833922 0 0 Z " fill="#FB4723" transform="translate(93,72)"/>
<path d="M0 0 C1.32418618 0.68623852 2.63766893 1.39367821 3.9375 2.125 C4.65292969 2.46144531 5.36835937 2.79789062 6.10546875 3.14453125 C8.5324814 4.44342288 9.05180198 5.54171412 9.9375 8.125 C10.0625 10.875 10.0625 10.875 9.9375 13.125 C10.9275 13.125 11.9175 13.125 12.9375 13.125 C13.2675 12.465 13.5975 11.805 13.9375 11.125 C13.2775 14.095 12.6175 17.065 11.9375 20.125 C10.1186048 17.87303452 8.8625882 15.9436346 7.75 13.25 C5.34310954 9.10018887 2.15589136 6.40827517 -2.0625 4.125 C-3.3825 4.125 -4.7025 4.125 -6.0625 4.125 C-5.175625 4.49625 -4.28875 4.8675 -3.375 5.25 C1.87009457 8.21892145 5.21461416 12.32983852 6.9375 18.125 C6.9375 19.115 6.9375 20.105 6.9375 21.125 C2.92584064 23.13082968 -1.71075359 22.73292031 -6.0625 22.125 C-11.87950535 19.39456892 -14.42150755 14.14442659 -16.921875 8.4921875 C-17.98802732 6.06901451 -17.98802732 6.06901451 -19.703125 4.0078125 C-21.0625 2.125 -21.0625 2.125 -21.0625 -0.875 C-14.35342021 -3.11135993 -6.46322973 -2.8928599 0 0 Z " fill="#356217" transform="translate(78.0625,100.875)"/>
<path d="M0 0 C-1.82501096 3.77295011 -3.8741166 7.41655832 -5.9375 11.0625 C-6.28490234 11.68705078 -6.63230469 12.31160156 -6.99023438 12.95507812 C-10.40592199 18.98238377 -10.40592199 18.98238377 -13 21 C-13.66 21 -14.32 21 -15 21 C-15 21.66 -15 22.32 -15 23 C-16.95825873 23.02694851 -18.91662226 23.04637218 -20.875 23.0625 C-21.96554688 23.07410156 -23.05609375 23.08570312 -24.1796875 23.09765625 C-27 23 -27 23 -29 22 C-29.15114765 15.04720829 -25.59414993 11.82008518 -20.93359375 6.94140625 C-20.29550781 6.30074219 -19.65742187 5.66007812 -19 5 C-22.86142204 5.78383567 -25.01328244 7.42810432 -28 10 C-28.33 8.35 -28.66 6.7 -29 5 C-27.92456217 4.01216806 -26.83926783 3.03506057 -25.75 2.0625 C-25.14671875 1.51722656 -24.5434375 0.97195312 -23.921875 0.41015625 C-17.45773625 -4.33283987 -7.07042938 -2.51393045 0 0 Z " fill="#396117" transform="translate(122,101)"/>
<path d="M0 0 C1.98 0 3.96 0 6 0 C6.33 0.99 6.66 1.98 7 3 C9.64 3 12.28 3 15 3 C15 2.34 15 1.68 15 1 C17.31 1.33 19.62 1.66 22 2 C22 3.65 22 5.3 22 7 C22.78375 7.309375 23.5675 7.61875 24.375 7.9375 C27 9 27 9 29 10 C30.66194453 10.35613097 32.328451 10.69208308 34 11 C34.50806075 13.54030376 35.0152607 16.08011868 35.5 18.625 C35.98065971 21.13198898 35.98065971 21.13198898 37 24 C38.98045559 24.66179847 38.98045559 24.66179847 41 25 C42 26 42 26 42.0625 28.5625 C42.041875 29.366875 42.02125 30.17125 42 31 C40.515 31.495 40.515 31.495 39 32 C39.58004799 37.97970029 39.58004799 37.97970029 40.6875 43.875 C41 46 41 46 39 49 C36.375 49.1875 36.375 49.1875 34 49 C34 48.34 34 47.68 34 47 C35.98 46.505 35.98 46.505 38 46 C37.75443359 45.18789062 37.75443359 45.18789062 37.50390625 44.359375 C36.91409413 41.59777407 36.90390692 39.07181861 36.9375 36.25 C36.94652344 35.26515625 36.95554688 34.2803125 36.96484375 33.265625 C36.97644531 32.51796875 36.98804688 31.7703125 37 31 C37.99 30.67 38.98 30.34 40 30 C40 28.68 40 27.36 40 26 C39.236875 25.95875 38.47375 25.9175 37.6875 25.875 C35 25 35 25 33.125 22.375 C31.81900423 18.45701268 32.1215263 15.99306227 33 12 C31.96875 12.103125 30.9375 12.20625 29.875 12.3125 C24.76852297 11.90068734 23.4477561 10.70003093 20 7 C20 5.68 20 4.36 20 3 C19.44828125 3.32742187 18.8965625 3.65484375 18.328125 3.9921875 C15.61219077 5.16787715 13.69448241 5.20248638 10.75 5.125 C9.85796875 5.10695313 8.9659375 5.08890625 8.046875 5.0703125 C7.03367187 5.03550781 7.03367187 5.03550781 6 5 C5.67 4.01 5.34 3.02 5 2 C3.68 2 2.36 2 1 2 C0.95875 2.763125 0.9175 3.52625 0.875 4.3125 C0 7 0 7 -2.6875 8.8125 C-6.05480373 10.01964662 -8.45748905 10.2530365 -12 10 C-11.87625 11.299375 -11.87625 11.299375 -11.75 12.625 C-12.06229107 16.84092949 -13.30729915 18.78371843 -16 22 C-18.25 22.875 -18.25 22.875 -20 23 C-19.83628906 23.54140625 -19.67257813 24.0828125 -19.50390625 24.640625 C-18.91409413 27.40222593 -18.90390692 29.92818139 -18.9375 32.75 C-18.94652344 33.73484375 -18.95554687 34.7196875 -18.96484375 35.734375 C-18.97644531 36.48203125 -18.98804688 37.2296875 -19 38 C-19.99 38.495 -19.99 38.495 -21 39 C-21 39.99 -21 40.98 -21 42 C-20.360625 42.2475 -19.72125 42.495 -19.0625 42.75 C-17 44 -17 44 -16.25 46.125 C-16.1675 46.74375 -16.085 47.3625 -16 48 C-16.99 47.67 -17.98 47.34 -19 47 C-19 46.34 -19 45.68 -19 45 C-20.65 44.67 -22.3 44.34 -24 44 C-24 42.02 -24 40.04 -24 38 C-22.515 37.505 -22.515 37.505 -21 37 C-21.14049518 35.52031676 -21.28754826 34.04125484 -21.4375 32.5625 C-21.55931641 31.32693359 -21.55931641 31.32693359 -21.68359375 30.06640625 C-21.78930815 28.01337975 -21.78930815 28.01337975 -23 27 C-23.1875 24.5625 -23.1875 24.5625 -23 22 C-22.34 21.34 -21.68 20.68 -21 20 C-19.68 20 -18.36 20 -17 20 C-16.0350611 16.71920775 -15.09442223 13.48260249 -14.4375 10.125 C-14 8 -14 8 -13 7 C-10.98688551 6.60430892 -8.96402792 6.25747809 -6.9375 5.9375 C-5.83277344 5.76089844 -4.72804688 5.58429687 -3.58984375 5.40234375 C-2.73519531 5.26957031 -1.88054687 5.13679688 -1 5 C-0.67 3.35 -0.34 1.7 0 0 Z " fill="#FCA492" transform="translate(81,51)"/>
<path d="M0 0 C3.49406769 1.66762322 4.82670681 2.74006022 7 6 C7.77649955 11.28019692 7.87107535 15.61172365 5 20.1875 C0.97451032 22.61956668 -1.36082895 22.39315009 -6 22 C-5.67 21.34 -5.34 20.68 -5 20 C-3.35 20 -1.7 20 0 20 C0 18.35 0 16.7 0 15 C1.32 15 2.64 15 4 15 C4 13.35 4 11.7 4 10 C2.35 10 0.7 10 -1 10 C-1 11.32 -1 12.64 -1 14 C-2.32 14 -3.64 14 -5 14 C-5 12.68 -5 11.36 -5 10 C-7.31 10 -9.62 10 -12 10 C-12.33 10.99 -12.66 11.98 -13 13 C-13.3125 9.8125 -13.3125 9.8125 -13 6 C-8.93395236 1.07794233 -6.35088224 -0.49810841 0 0 Z " fill="#FC5B3A" transform="translate(93,74)"/>
<path d="M0 0 C6.93344334 0.14752007 11.12279753 3.20484393 16 8 C17.91758184 10.55380969 19.53445006 13.16463957 21 16 C21.33 14.35 21.66 12.7 22 11 C21.01 11 20.02 11 19 11 C18.34 8.36 17.68 5.72 17 3 C19.31 3 21.62 3 24 3 C24.66 4.32 25.32 5.64 26 7 C26.86625 6.195625 27.7325 5.39125 28.625 4.5625 C31.62876093 2.03075864 34.03203262 1.28342624 38 1 C37.319375 1.495 36.63875 1.99 35.9375 2.5 C30.2377222 7.35087472 26.18715477 11.765565 24 19 C21.875 20.875 21.875 20.875 20 22 C19.34 21.34 18.68 20.68 18 20 C17.01 20.33 16.02 20.66 15 21 C12.81570039 21.14469246 10.62638999 21.22065175 8.4375 21.25 C6.70306641 21.28867188 6.70306641 21.28867188 4.93359375 21.328125 C3.96550781 21.21984375 2.99742188 21.1115625 2 21 C1.34 20.01 0.68 19.02 0 18 C0.99 18.33 1.98 18.66 3 19 C5.22818441 19.06937062 7.45834524 19.08457084 9.6875 19.0625 C10.86699219 19.05347656 12.04648438 19.04445313 13.26171875 19.03515625 C14.16535156 19.02355469 15.06898437 19.01195313 16 19 C13.18006045 10.45724194 10.66000131 6.5025933 2.625 2.1875 C1.75875 1.795625 0.8925 1.40375 0 1 C0 0.67 0 0.34 0 0 Z " fill="#DA532A" transform="translate(69,103)"/>
<path d="M0 0 C5.94935204 2.4384249 10.35898076 6.46229548 13.078125 12.32421875 C15.1555113 18.35392051 14.90329645 24.85003055 12.1875 30.625 C10.61626428 33.57482952 10.34195203 33.88601599 7 35 C9 31 9 31 10.046875 29.2578125 C12.05862245 24.4922796 11.5103133 19.05903188 11 14 C8.86526742 9.49334232 6.08177871 6.8258468 2 4 C-2.04164835 2.65278388 -5.77074562 2.55403293 -10 3 C-12.87146994 4.36997157 -12.87146994 4.36997157 -15 6 C-15.66 6 -16.32 6 -17 6 C-17.28875 6.598125 -17.5775 7.19625 -17.875 7.8125 C-19 10 -19 10 -21 13 C-22.21418719 18.68905451 -22.43603731 23.61507542 -20 29 C-19.690625 29.763125 -19.38125 30.52625 -19.0625 31.3125 C-18.03448271 33.34090388 -18.03448271 33.34090388 -15 34 C-14.67 34.99 -14.34 35.98 -14 37 C-18.52204494 36.47559479 -18.52204494 36.47559479 -20.58203125 34.42578125 C-24.61411989 27.50082901 -25.14254852 20.88637149 -24 13 C-22.29948381 8.13817177 -19.72033394 5.17215901 -15.3125 2.5625 C-14.219375 2.046875 -13.12625 1.53125 -12 1 C-8.25060513 -0.87469743 -4.08251038 -0.53120384 0 0 Z " fill="#F8A897" transform="translate(95,65)"/>
<path d="M0 0 C3.92288321 2.11232173 6.65013043 4.2227025 9 8 C9.90014358 12.55654078 10.05077796 17.10661707 7.7578125 21.23828125 C4.40884168 25.2620447 2.06333531 26.72224332 -3.25 27.4375 C-8.29290816 26.84916071 -10.70751125 24.74631828 -14 21 C-16.10751267 17.33476058 -16.51324557 14.19150546 -16 10 C-12.23001741 3.01855076 -8.25316695 -1.15833922 0 0 Z M-12 6 C-14.59036348 9.41457004 -14.43108741 12.83282171 -14 17 C-11.7412063 21.24028619 -11.7412063 21.24028619 -8 24 C-3.06749945 24.61110626 0.76686268 24.71521964 5.125 22.1875 C7.87255404 17.51665813 8.0162825 13.28784488 7 8 C4.7984026 5.10316132 3.21405538 3.60702769 0 2 C-5.266135 1.40157557 -7.93049103 2.67040175 -12 6 Z " fill="#FCA695" transform="translate(93,72)"/>
<path d="M0 0 C1.21816406 0.03480469 1.21816406 0.03480469 2.4609375 0.0703125 C3.68683594 0.09738281 3.68683594 0.09738281 4.9375 0.125 C5.87722656 0.15980469 5.87722656 0.15980469 6.8359375 0.1953125 C7.4959375 1.8453125 8.1559375 3.4953125 8.8359375 5.1953125 C9.4959375 5.1953125 10.1559375 5.1953125 10.8359375 5.1953125 C11.1659375 3.8753125 11.4959375 2.5553125 11.8359375 1.1953125 C11.8359375 3.8353125 11.8359375 6.4753125 11.8359375 9.1953125 C10.8459375 8.8653125 9.8559375 8.5353125 8.8359375 8.1953125 C8.5059375 7.5353125 8.1759375 6.8753125 7.8359375 6.1953125 C7.5059375 7.5153125 7.1759375 8.8353125 6.8359375 10.1953125 C5.37851287 10.27628053 3.91980943 10.33449024 2.4609375 10.3828125 C1.64882812 10.41761719 0.83671875 10.45242187 0 10.48828125 C-0.71414062 10.39160156 -1.42828125 10.29492188 -2.1640625 10.1953125 C-4.31322035 6.97157573 -4.54693053 5.92827576 -4.1640625 2.1953125 C-2.1640625 0.1953125 -2.1640625 0.1953125 0 0 Z " fill="#FC5C3B" transform="translate(63.1640625,130.8046875)"/>
<path d="M0 0 C1.134375 0.020625 2.26875 0.04125 3.4375 0.0625 C3.4375 1.0525 3.4375 2.0425 3.4375 3.0625 C4.0975 3.0625 4.7575 3.0625 5.4375 3.0625 C5.4375 2.0725 5.4375 1.0825 5.4375 0.0625 C6.7575 0.3925 8.0775 0.7225 9.4375 1.0625 C9.7675 3.7025 10.0975 6.3425 10.4375 9.0625 C8.7875 8.7325 7.1375 8.4025 5.4375 8.0625 C5.4375 8.7225 5.4375 9.3825 5.4375 10.0625 C-0.6171875 10.2578125 -0.6171875 10.2578125 -2.5625 10.0625 C-4.5625 8.0625 -4.5625 8.0625 -4.75 4.5 C-4.50886015 0.07910281 -4.50886015 0.07910281 0 0 Z " fill="#FC5836" transform="translate(93.5625,130.9375)"/>
<path d="M0 0 C3.23649133 0.98724628 6.05889277 2.34524973 9 4 C9.71542969 4.33644531 10.43085937 4.67289062 11.16796875 5.01953125 C13.5949814 6.31842288 14.11430198 7.41671412 15 10 C15.125 12.75 15.125 12.75 15 15 C15.99 15 16.98 15 18 15 C18.33 14.34 18.66 13.68 19 13 C18.34 15.97 17.68 18.94 17 22 C15.1811048 19.74803452 13.9250882 17.8186346 12.8125 15.125 C9.92865761 10.15285796 5.44676886 6.81558962 0 5 C-0.33 4.01 -0.66 3.02 -1 2 C-5.95 2 -10.9 2 -16 2 C-11.10246395 -1.26502403 -5.72496915 -0.55723918 0 0 Z " fill="#53601B" transform="translate(73,99)"/>
<path d="M0 0 C0.98484375 0.00902344 1.9696875 0.01804687 2.984375 0.02734375 C4.10585937 0.04474609 4.10585937 0.04474609 5.25 0.0625 C5.25 0.3925 5.25 0.7225 5.25 1.0625 C2.94 1.3925 0.63 1.7225 -1.75 2.0625 C1.22 2.5575 1.22 2.5575 4.25 3.0625 C4.25 3.7225 4.25 4.3825 4.25 5.0625 C3.16332031 5.10117188 3.16332031 5.10117188 2.0546875 5.140625 C-4.1693238 5.505767 -7.92279614 6.08005681 -12.75 10.0625 C-13.74 10.7225 -14.73 11.3825 -15.75 12.0625 C-16.08 10.4125 -16.41 8.7625 -16.75 7.0625 C-15.67456217 6.07466806 -14.58926783 5.09756057 -13.5 4.125 C-12.89671875 3.57972656 -12.2934375 3.03445312 -11.671875 2.47265625 C-7.9941847 -0.22581163 -4.45151806 -0.05299426 0 0 Z " fill="#525F1A" transform="translate(109.75,98.9375)"/>
<path d="M0 0 C2.625 0.375 2.625 0.375 5 1 C5 1.99 5 2.98 5 4 C5.66 4 6.32 4 7 4 C7.04254356 5.99954746 7.04080783 8.00041636 7 10 C6 11 6 11 3.0625 11.25 C2.051875 11.1675 1.04125 11.085 0 11 C-2.30163882 7.54754176 -2.34490322 6.05261287 -2 2 C-1.34 1.34 -0.68 0.68 0 0 Z " fill="#FC5E3E" transform="translate(79,131)"/>
<path d="M0 0 C0.763125 0.0825 1.52625 0.165 2.3125 0.25 C2.3125 2.56 2.3125 4.87 2.3125 7.25 C3.6325 7.25 4.9525 7.25 6.3125 7.25 C6.3125 8.9 6.3125 10.55 6.3125 12.25 C4.9925 12.25 3.6725 12.25 2.3125 12.25 C2.3125 10.93 2.3125 9.61 2.3125 8.25 C0.0025 8.25 -2.3075 8.25 -4.6875 8.25 C-5.0175 9.24 -5.3475 10.23 -5.6875 11.25 C-6.04858597 4.99117647 -6.04858597 4.99117647 -4.5 1.8125 C-2.6875 0.25 -2.6875 0.25 0 0 Z " fill="#FC441E" transform="translate(85.6875,75.75)"/>
<path d="M0 0 C-0.33 1.65 -0.66 3.3 -1 5 C-2.32 5 -3.64 5 -5 5 C-5 6.65 -5 8.3 -5 10 C-6.98 10 -8.96 10 -11 10 C-10.67 8.02 -10.34 6.04 -10 4 C-8.68 4 -7.36 4 -6 4 C-6 2.68 -6 1.36 -6 0 C-3.50907189 -1.24546405 -2.58919267 -0.7767578 0 0 Z " fill="#FC7C62" transform="translate(98,84)"/>
<path d="M0 0 C0.66 0.33 1.32 0.66 2 1 C1.01 2.2684375 1.01 2.2684375 0 3.5625 C-2.30636893 7.5265716 -2.57402898 9.4897723 -2 14 C-0.34860695 17.5386994 0.71605229 18.81070153 4 21 C6.0492094 21.45139459 6.0492094 21.45139459 8.1875 21.625 C9.445625 21.74875 10.70375 21.8725 12 22 C11.67 22.66 11.34 23.32 11 24 C7.62965931 24.41269478 5.03716803 24.61607781 2.046875 22.83984375 C-2.53917699 19.07272962 -4.61454932 16.01936367 -5.375 10.0625 C-4.86662673 5.91078499 -2.95594143 2.95594143 0 0 Z " fill="#FCAB9A" transform="translate(82,75)"/>
<path d="M0 0 C0.33 0 0.66 0 1 0 C1.60150376 7.09774436 1.60150376 7.09774436 -1 11 C-5.02979465 13.68652977 -7.23934031 13.40344574 -12 13 C-11.67 12.34 -11.34 11.68 -11 11 C-9.35 11 -7.7 11 -6 11 C-6 9.35 -6 7.7 -6 6 C-4.68 6 -3.36 6 -2 6 C-1.34 4.02 -0.68 2.04 0 0 Z " fill="#FC3D16" transform="translate(99,83)"/>
<path d="M0 0 C6.86469475 0.14605734 11.23003052 3.15118805 16 8 C17.5625 11.4375 17.5625 11.4375 18 14 C16.68 14 15.36 14 14 14 C13.608125 13.0925 13.21625 12.185 12.8125 11.25 C9.77832636 5.80941279 5.53871046 3.5761444 0 1 C0 0.67 0 0.34 0 0 Z " fill="#BB4511" transform="translate(69,103)"/>
<path d="M0 0 C4.75 0.875 4.75 0.875 7 2 C6.67 3.98 6.34 5.96 6 8 C5.01 7.34 4.02 6.68 3 6 C2.01 6.33 1.02 6.66 0 7 C-2.18429961 7.14469246 -4.37361001 7.22065175 -6.5625 7.25 C-8.29693359 7.28867188 -8.29693359 7.28867188 -10.06640625 7.328125 C-11.03449219 7.21984375 -12.00257812 7.1115625 -13 7 C-13.66 6.01 -14.32 5.02 -15 4 C-14.01 4.33 -13.02 4.66 -12 5 C-9.77181559 5.06937062 -7.54165476 5.08457084 -5.3125 5.0625 C-4.13300781 5.05347656 -2.95351562 5.04445313 -1.73828125 5.03515625 C-0.83464844 5.02355469 0.06898437 5.01195313 1 5 C0.67 3.35 0.34 1.7 0 0 Z " fill="#9C4C13" transform="translate(84,117)"/>
<path d="M0 0 C0.061875 0.61875 0.12375 1.2375 0.1875 1.875 C0.82051688 4.25602845 0.82051688 4.25602845 3.4375 5.1875 C4.7059375 5.5896875 4.7059375 5.5896875 6 6 C6.66 6.33 7.32 6.66 8 7 C9.66194453 7.35613097 11.328451 7.69208308 13 8 C13.75241109 11.65456815 14.40049704 15.31733897 15 19 C14.34 19 13.68 19 13 19 C10.43312633 15.1496895 11.16711276 13.41430237 12 9 C10.948125 9.0825 9.89625 9.165 8.8125 9.25 C4.41135903 8.96140059 2.91227503 8.26527806 0 5 C-0.3125 2.25 -0.3125 2.25 0 0 Z " fill="#FCAFA0" transform="translate(102,54)"/>
<path d="M0 0 C2.31 0 4.62 0 7 0 C8.0257259 4.41062136 8.03684712 6.92630576 6 11 C5.67 10.01 5.34 9.02 5 8 C4.01 8 3.02 8 2 8 C1.34 5.36 0.68 2.72 0 0 Z " fill="#705B1C" transform="translate(86,106)"/>
<path d="M0 0 C1.66611905 -0.042721 3.33382885 -0.04063832 5 0 C6 1 6 1 6.09765625 2.84765625 C6.06510417 4.8984375 6.03255208 6.94921875 6 9 C5.34 9 4.68 9 4 9 C4 8.01 4 7.02 4 6 C3.34 6 2.68 6 2 6 C2 6.99 2 7.98 2 9 C1.34 9 0.68 9 0 9 C0 6.03 0 3.06 0 0 Z " fill="#FDB7A9" transform="translate(106,131)"/>
<path d="M0 0 C0.33 0 0.66 0 1 0 C1.33 3.3 1.66 6.6 2 10 C1.01 10.495 1.01 10.495 0 11 C0 11.99 0 12.98 0 14 C0.639375 14.2475 1.27875 14.495 1.9375 14.75 C4 16 4 16 4.75 18.125 C4.87375 19.053125 4.87375 19.053125 5 20 C4.01 19.67 3.02 19.34 2 19 C2 18.34 2 17.68 2 17 C0.35 16.67 -1.3 16.34 -3 16 C-3 14.02 -3 12.04 -3 10 C-2.01 9.67 -1.02 9.34 0 9 C0 6.03 0 3.06 0 0 Z " fill="#FA9F8B" transform="translate(60,79)"/>
<path d="M0 0 C1.32 0.33 2.64 0.66 4 1 C4.33 3.64 4.66 6.28 5 9 C2.69 9 0.38 9 -2 9 C-1.34 6.03 -0.68 3.06 0 0 Z " fill="#FDAF9F" transform="translate(99,131)"/>
<path d="M0 0 C1.98 0 3.96 0 6 0 C6 0.66 6 1.32 6 2 C4.68 2 3.36 2 2 2 C2 2.66 2 3.32 2 4 C2.99 4 3.98 4 5 4 C5 4.66 5 5.32 5 6 C4.01 6 3.02 6 2 6 C2 6.66 2 7.32 2 8 C3.32 8 4.64 8 6 8 C6 8.66 6 9.32 6 10 C4.02 10 2.04 10 0 10 C0 6.7 0 3.4 0 0 Z " fill="#FDB2A3" transform="translate(114,131)"/>
<path d="M0 0 C0.99 0.33 1.98 0.66 3 1 C3.6875 3.0625 3.6875 3.0625 4 5 C4.66 5 5.32 5 6 5 C6.33 3.68 6.66 2.36 7 1 C7 3.64 7 6.28 7 9 C6.01 8.67 5.02 8.34 4 8 C3.67 7.34 3.34 6.68 3 6 C2.67 6.99 2.34 7.98 2 9 C1.34 9 0.68 9 0 9 C0 6.03 0 3.06 0 0 Z " fill="#FECCC2" transform="translate(68,131)"/>
<path d="M0 0 C2.625 0.375 2.625 0.375 5 1 C5 1.66 5 2.32 5 3 C3.68 3 2.36 3 1 3 C1 4.32 1 5.64 1 7 C1.66 7.33 2.32 7.66 3 8 C3 7.01 3 6.02 3 5 C3.66 5 4.32 5 5 5 C5 6.32 5 7.64 5 9 C3.00045254 9.04254356 0.99958364 9.04080783 -1 9 C-2 8 -2 8 -2.1875 5.0625 C-2 2 -2 2 0 0 Z " fill="#FDBFB2" transform="translate(79,131)"/>
<path d="M0 0 C1.2065625 0.0309375 1.2065625 0.0309375 2.4375 0.0625 C2.7675 1.0525 3.0975 2.0425 3.4375 3.0625 C1.7875 3.0625 0.1375 3.0625 -1.5625 3.0625 C-1.2325 4.3825 -0.9025 5.7025 -0.5625 7.0625 C0.7575 7.0625 2.0775 7.0625 3.4375 7.0625 C3.4375 7.7225 3.4375 8.3825 3.4375 9.0625 C1.43795254 9.10504356 -0.56291636 9.10330783 -2.5625 9.0625 C-3.5625 8.0625 -3.5625 8.0625 -3.6875 4.5625 C-3.52762642 0.08603967 -3.52762642 0.08603967 0 0 Z " fill="#FDBCAE" transform="translate(92.5625,130.9375)"/>
<path d="M0 0 C0.33 0 0.66 0 1 0 C1 2.97 1 5.94 1 9 C1.99 9.33 2.98 9.66 4 10 C3.125 15.875 3.125 15.875 2 17 C0.33382885 17.04063832 -1.33388095 17.042721 -3 17 C-3 16.34 -3 15.68 -3 15 C-1.68 14.67 -0.36 14.34 1 14 C0.83628906 13.44828125 0.67257813 12.8965625 0.50390625 12.328125 C-0.05760414 9.73385993 -0.09739008 7.40164589 -0.0625 4.75 C-0.05347656 3.85796875 -0.04445313 2.9659375 -0.03515625 2.046875 C-0.02355469 1.37140625 -0.01195313 0.6959375 0 0 Z " fill="#F2B09F" transform="translate(118,83)"/>
<path d="M0 0 C2.625 0.375 2.625 0.375 5 1 C4.360625 1.2475 3.72125 1.495 3.0625 1.75 C0.81258459 2.81562433 0.81258459 2.81562433 0.25 5.125 C0.1675 5.74375 0.085 6.3625 0 7 C1.65 7 3.3 7 5 7 C5 7.66 5 8.32 5 9 C3.02 9 1.04 9 -1 9 C-1.625 5.625 -1.625 5.625 -2 2 C-1.34 1.34 -0.68 0.68 0 0 Z " fill="#FDB5A7" transform="translate(61,131)"/>
<path d="M0 0 C0.33 0 0.66 0 1 0 C2.28698622 6.04323963 2.12169702 9.98009218 -0.796875 15.46875 C-2 17 -2 17 -5 18 C-3 14 -3 14 -1.96875 12.1875 C-0.84325728 9.64606483 -0.59324494 7.51443591 -0.375 4.75 C-0.26285156 3.41195312 -0.26285156 3.41195312 -0.1484375 2.046875 C-0.09945312 1.37140625 -0.05046875 0.6959375 0 0 Z " fill="#F89F8C" transform="translate(107,82)"/>
<path d="M0 0 C2.0625 0.4375 2.0625 0.4375 4 1 C3.01 1.495 3.01 1.495 2 2 C2.16371094 2.56203125 2.32742187 3.1240625 2.49609375 3.703125 C3.02864997 6.13059056 3.09898681 8.26889681 3.0625 10.75 C3.05347656 11.54921875 3.04445313 12.3484375 3.03515625 13.171875 C3.01775391 14.07679687 3.01775391 14.07679687 3 15 C2.67 15 2.34 15 2 15 C2 12.36 2 9.72 2 7 C1.01 6.67 0.02 6.34 -1 6 C-1.042721 4.33388095 -1.04063832 2.66617115 -1 1 C-0.67 0.67 -0.34 0.34 0 0 Z " fill="#FCB3A4" transform="translate(59,72)"/>
<path d="M0 0 C0.33 0 0.66 0 1 0 C1 2.97 1 5.94 1 9 C1.66 9.33 2.32 9.66 3 10 C1.02 10 -0.96 10 -3 10 C-2.67 7.69 -2.34 5.38 -2 3 C-1.34 3 -0.68 3 0 3 C0 2.01 0 1.02 0 0 Z " fill="#FC6648" transform="translate(105,131)"/>
<path d="M0 0 C0.53625 0.2475 1.0725 0.495 1.625 0.75 C-2.875 3.75 -2.875 3.75 -7.375 6.75 C-7.705 5.76 -8.035 4.77 -8.375 3.75 C-2.95961538 -0.31153846 -2.95961538 -0.31153846 0 0 Z " fill="#BB4411" transform="translate(105.375,104.25)"/>
<path d="M0 0 C2.31 0.33 4.62 0.66 7 1 C6.67 2.65 6.34 4.3 6 6 C5.67 4.68 5.34 3.36 5 2 C4.2575 2.37125 3.515 2.7425 2.75 3.125 C0 4 0 4 -2.3125 3.125 C-2.869375 2.75375 -3.42625 2.3825 -4 2 C-2.68 2 -1.36 2 0 2 C0 1.34 0 0.68 0 0 Z " fill="#FC9F8C" transform="translate(96,52)"/>
<path d="M0 0 C2.31 0 4.62 0 7 0 C6.01 1.98 5.02 3.96 4 6 C1.7522025 3.94766315 0.9977758 2.99332739 0 0 Z " fill="#EE431B" transform="translate(86,106)"/>
<path d="M0 0 C0.99 0.33 1.98 0.66 3 1 C2.34 1.66 1.68 2.32 1 3 C0.29289322 4.64991582 -0.37943989 6.31562256 -1 8 C-1.66 7.34 -2.32 6.68 -3 6 C-2.63318342 3.06546739 -2.13562754 2.13562754 0 0 Z " fill="#46641E" transform="translate(96,103)"/>
<path d="M0 0 C0.33 0.99 0.66 1.98 1 3 C-0.17578125 4.51953125 -0.17578125 4.51953125 -2 6 C-4.48046875 6.07421875 -4.48046875 6.07421875 -7.1875 5.6875 C-8.08855469 5.56761719 -8.98960938 5.44773437 -9.91796875 5.32421875 C-10.60503906 5.21722656 -11.29210937 5.11023438 -12 5 C-12 4.67 -12 4.34 -12 4 C-11.38511719 3.96261719 -10.77023438 3.92523438 -10.13671875 3.88671875 C-9.32847656 3.82097656 -8.52023438 3.75523438 -7.6875 3.6875 C-6.88699219 3.62949219 -6.08648437 3.57148437 -5.26171875 3.51171875 C-2.63727666 2.91793306 -1.69179328 2.04219706 0 0 Z " fill="#FC9580" transform="translate(98,92)"/>
<path d="M0 0 C1.98 0.495 1.98 0.495 4 1 C3.67 2.32 3.34 3.64 3 5 C1.68 4.67 0.36 4.34 -1 4 C-0.67 2.68 -0.34 1.36 0 0 Z " fill="#FBA695" transform="translate(83,83)"/>
<path d="M0 0 C1.98 0.495 1.98 0.495 4 1 C3.67 2.32 3.34 3.64 3 5 C1.68 4.67 0.36 4.34 -1 4 C-0.67 2.68 -0.34 1.36 0 0 Z " fill="#FAA392" transform="translate(94,83)"/>
<path d="M0 0 C0.66 0.66 1.32 1.32 2 2 C1.67 2.99 1.34 3.98 1 5 C-0.98 5 -2.96 5 -5 5 C-4.67 3.68 -4.34 2.36 -4 1 C-2.02 1.495 -2.02 1.495 0 2 C0 1.34 0 0.68 0 0 Z " fill="#FEC7BB" transform="translate(102,135)"/>
<path d="M0 0 C1.98 0.495 1.98 0.495 4 1 C4 1.66 4 2.32 4 3 C3.34 3 2.68 3 2 3 C2 3.99 2 4.98 2 6 C1.01 5.67 0.02 5.34 -1 5 C-0.67 3.35 -0.34 1.7 0 0 Z " fill="#FC6A4D" transform="translate(80,133)"/>
<path d="M0 0 C1.32 0 2.64 0 4 0 C4 1.65 4 3.3 4 5 C2.68 5 1.36 5 0 5 C0 3.35 0 1.7 0 0 Z " fill="#FC370F" transform="translate(88,83)"/>
<path d="M0 0 C1.25541557 3.76624671 0.37061958 5.37188934 -1 9 C-3 6 -3 6 -3 2 C-2.01 2 -1.02 2 0 2 C0 1.34 0 0.68 0 0 Z " fill="#3D6117" transform="translate(91,112)"/>
<path d="M0 0 C0.66 0.33 1.32 0.66 2 1 C2.625 3.5625 2.625 3.5625 3 6 C1.68 6 0.36 6 -1 6 C-1.33 4.68 -1.66 3.36 -2 2 C-1.34 2 -0.68 2 0 2 C0 1.34 0 0.68 0 0 Z " fill="#C56F46" transform="translate(84,111)"/>
<path d="M0 0 C1.65 0 3.3 0 5 0 C5.33 0.99 5.66 1.98 6 3 C4.02 3 2.04 3 0 3 C0 2.01 0 1.02 0 0 Z " fill="#FDA593" transform="translate(90,131)"/>
</svg>
