<svg width="23" height="23" viewBox="0 0 23 23" fill="none" xmlns="http://www.w3.org/2000/svg">
<path d="M11.7764 7.45166C10.1309 7.71122 8.58863 5.70904 8.17587 4.4575C8.01919 3.98236 7.77841 3.31648 8.4589 3.12741L8.43326 2.17588C8.43252 1.83234 8.44988 1.53326 8.57401 1.20825C8.94958 0.22482 10.2249 0.0373668 11.2023 0.00233638L11.6877 0C12.2088 0.00440217 12.7186 0.0596235 13.2176 0.205284C14.3382 0.532397 14.5646 1.21627 14.5651 2.25848L14.5536 3.12751C15.0071 3.37334 15.0306 3.41844 14.9337 3.92678C14.6701 5.31034 13.3443 7.19698 11.7764 7.45166ZM10.6656 12.7645L9.92428 12.7621L8.1764 8.38207C8.11937 8.18557 8.60693 7.76965 8.76757 7.73699C9.08326 7.78549 9.46151 8.20146 9.70756 8.38325C10.0901 8.66587 10.5111 8.92243 10.8635 9.23702L10.7895 9.99818C10.7899 10.2599 10.9715 10.2946 11.152 10.4675C11.2383 10.5502 11.181 10.8733 11.181 10.9915L11.1773 12.7663L10.6656 12.7645ZM12.4146 12.7644L11.8208 12.7665L11.7873 10.5707C11.7766 10.3229 12.2172 10.3867 12.1983 9.86169C12.1683 9.03108 11.9459 9.32462 12.7419 8.76218L13.3179 8.33879C13.5444 8.1689 13.8747 7.80989 14.1602 7.75239H14.1653C14.3317 7.75795 14.4419 7.89291 14.5515 7.99478L14.8409 8.26525L13.2313 12.4385C13.1919 12.5424 13.1707 12.6757 13.1087 12.7668L12.4146 12.7644ZM5.489 12.7644L3.6506 12.7612C3.67333 12.3214 3.75885 11.8952 3.83308 11.4614C4.17788 9.44685 4.49083 9.16408 6.74795 8.50784C6.98904 8.43775 7.23287 8.35718 7.48278 8.32108L7.50398 8.31916C7.66589 8.33033 8.03459 9.5257 8.09764 9.69372L9.19848 12.5359C9.22074 12.6005 9.2324 12.6898 9.27782 12.7428L5.489 12.7644ZM17.7004 12.7644L14.0385 12.7628C13.7114 12.7625 13.7173 12.8385 13.8338 12.5056L14.8643 9.7824C15.0424 9.30165 15.1942 8.78426 15.4314 8.32654C15.774 8.38271 16.1012 8.4709 16.4341 8.56194C18.618 9.15936 18.8495 9.62953 19.1694 11.5223L19.3594 12.7718L17.7004 12.7644ZM22.542 15.1871C22.2074 15.2249 21.8633 15.2115 21.5273 15.2121L0.543217 15.2082C-0.0903185 15.1934 0.00511553 14.627 0.00511553 14.2417C0.00516828 13.8166 -0.0668953 13.3826 0.500644 13.298L22.2764 13.2948C22.7409 13.2949 22.9889 13.3386 22.9921 13.8921L22.993 14.3655C22.9928 14.5024 23.0208 14.7165 22.9664 14.8435L22.9583 14.8613C22.8806 15.0498 22.7515 15.1486 22.542 15.1871ZM21.0521 22.72C20.6778 23.0708 20.1983 22.9925 19.713 22.9926L2.58062 22.9908C2.18917 22.9747 1.84289 22.717 1.72825 22.3719C1.65535 22.1524 1.69438 21.8381 1.69396 21.6054L1.6909 15.751L21.3013 15.7616C21.3297 16.2036 21.3057 16.6593 21.3058 17.1024L21.3059 21.4143C21.3057 21.8733 21.4055 22.3482 21.0521 22.72Z" fill="white"/>
</svg>
