<svg width="23" height="22" viewBox="0 0 23 22" fill="none" xmlns="http://www.w3.org/2000/svg">
<path d="M8.44444 18.5263C8.08185 18.5263 7.72739 18.6282 7.4259 18.819C7.12441 19.0099 6.88943 19.2811 6.75067 19.5985C6.6119 19.9159 6.5756 20.2651 6.64634 20.602C6.71708 20.9389 6.89169 21.2484 7.14808 21.4913C7.40448 21.7342 7.73115 21.8996 8.08678 21.9666C8.44241 22.0336 8.81103 21.9992 9.14603 21.8678C9.48103 21.7363 9.76736 21.5137 9.96881 21.2281C10.1703 20.9425 10.2778 20.6067 10.2778 20.2632C10.2778 19.8025 10.0846 19.3607 9.74081 19.035C9.39699 18.7093 8.93067 18.5263 8.44444 18.5263ZM21.2778 15.0526H6.61111C6.28696 15.0526 5.97608 14.9306 5.74687 14.7135C5.51766 14.4963 5.38889 14.2018 5.38889 13.8947C5.38889 13.5876 5.51766 13.2931 5.74687 13.076C5.97608 12.8588 6.28696 12.7368 6.61111 12.7368H16.9893C17.7854 12.7344 18.5594 12.4876 19.195 12.0334C19.8307 11.5792 20.2938 10.9421 20.5151 10.2175L22.4529 3.79199C22.5048 3.61966 22.5139 3.43825 22.4793 3.26205C22.4447 3.08584 22.3674 2.91965 22.2535 2.77655C22.1396 2.63345 21.9922 2.51736 21.8229 2.4374C21.6536 2.35745 21.467 2.31582 21.2778 2.31579H6.2922C6.03918 1.64115 5.57276 1.05682 4.9565 0.642416C4.34023 0.22801 3.60409 0.00368297 2.84837 0H1.72222C1.39807 0 1.08719 0.121992 0.857981 0.339139C0.628769 0.556287 0.5 0.850802 0.5 1.15789C0.5 1.46499 0.628769 1.7595 0.857981 1.97665C1.08719 2.1938 1.39807 2.31579 1.72222 2.31579H2.84837C3.11369 2.31667 3.37157 2.39894 3.58341 2.5503C3.79524 2.70165 3.94962 2.91394 4.02343 3.15538L4.21351 3.78613L4.21381 3.79199L6.21902 10.4408C5.28593 10.5359 4.42684 10.9664 3.81866 11.6435C3.21047 12.3206 2.89948 13.1929 2.94973 14.0807C2.99998 14.9685 3.40764 15.8042 4.08877 16.4159C4.76989 17.0275 5.67264 17.3684 6.61111 17.3684H21.2778C21.6019 17.3684 21.9128 17.2464 22.142 17.0293C22.3712 16.8121 22.5 16.5176 22.5 16.2105C22.5 15.9034 22.3712 15.6089 22.142 15.3918C21.9128 15.1746 21.6019 15.0526 21.2778 15.0526ZM19.6575 4.63158L18.1649 9.5809C18.0912 9.82253 17.9368 10.035 17.7248 10.1865C17.5128 10.338 17.2548 10.4203 16.9893 10.4211H8.75537L8.44377 9.38797L7.01007 4.63158H19.6575ZM18.2222 18.5263C17.8596 18.5263 17.5052 18.6282 17.2037 18.819C16.9022 19.0099 16.6672 19.2811 16.5284 19.5985C16.3897 19.9159 16.3534 20.2651 16.4241 20.602C16.4949 20.9389 16.6695 21.2484 16.9259 21.4913C17.1823 21.7342 17.5089 21.8996 17.8646 21.9666C18.2202 22.0336 18.5888 21.9992 18.9238 21.8678C19.2588 21.7363 19.5451 21.5137 19.7466 21.2281C19.948 20.9425 20.0556 20.6067 20.0556 20.2632C20.0556 19.8025 19.8624 19.3607 19.5186 19.035C19.1748 18.7093 18.7085 18.5263 18.2222 18.5263Z" fill="white"/>
</svg>
