<svg width="21" height="21" viewBox="0 0 21 21" fill="none" xmlns="http://www.w3.org/2000/svg">
<path d="M0 10.5C0 10.7785 0.138281 11.0455 0.384423 11.2425C0.630564 11.4394 0.964403 11.55 1.3125 11.55H11.2744L8.25562 13.9545C8.13261 14.0521 8.03496 14.1682 7.96833 14.2962C7.9017 14.4241 7.86739 14.5614 7.86739 14.7C7.86739 14.8386 7.9017 14.9759 7.96833 15.1038C8.03496 15.2318 8.13261 15.3479 8.25562 15.4455C8.37764 15.5439 8.5228 15.622 8.68274 15.6753C8.84268 15.7286 9.01423 15.7561 9.1875 15.7561C9.36077 15.7561 9.53232 15.7286 9.69226 15.6753C9.8522 15.622 9.99736 15.5439 10.1194 15.4455L15.3694 11.2455C15.4889 11.1456 15.5825 11.0279 15.645 10.899C15.7763 10.6434 15.7763 10.3566 15.645 10.101C15.5825 9.97211 15.4889 9.85436 15.3694 9.7545L10.1194 5.5545C9.997 5.4566 9.85172 5.37894 9.69183 5.32596C9.53194 5.27297 9.36056 5.2457 9.1875 5.2457C9.01443 5.2457 8.84306 5.27297 8.68317 5.32596C8.52328 5.37894 8.378 5.4566 8.25562 5.5545C8.13325 5.6524 8.03618 5.76862 7.96995 5.89654C7.90372 6.02445 7.86963 6.16155 7.86963 6.3C7.86963 6.43845 7.90372 6.57555 7.96995 6.70346C8.03618 6.83137 8.13325 6.9476 8.25562 7.0455L11.2744 9.45H1.3125C0.964403 9.45 0.630564 9.56063 0.384423 9.75754C0.138281 9.95445 0 10.2215 0 10.5ZM17.0625 0H3.9375C2.89321 0 1.89169 0.331874 1.15327 0.922614C0.414843 1.51335 0 2.31457 0 3.15V6.3C0 6.57848 0.138281 6.84555 0.384423 7.04246C0.630564 7.23937 0.964403 7.35 1.3125 7.35C1.6606 7.35 1.99444 7.23937 2.24058 7.04246C2.48672 6.84555 2.625 6.57848 2.625 6.3V3.15C2.625 2.87152 2.76328 2.60445 3.00942 2.40754C3.25556 2.21062 3.5894 2.1 3.9375 2.1H17.0625C17.4106 2.1 17.7444 2.21062 17.9906 2.40754C18.2367 2.60445 18.375 2.87152 18.375 3.15V17.85C18.375 18.1285 18.2367 18.3955 17.9906 18.5925C17.7444 18.7894 17.4106 18.9 17.0625 18.9H3.9375C3.5894 18.9 3.25556 18.7894 3.00942 18.5925C2.76328 18.3955 2.625 18.1285 2.625 17.85V14.7C2.625 14.4215 2.48672 14.1545 2.24058 13.9575C1.99444 13.7606 1.6606 13.65 1.3125 13.65C0.964403 13.65 0.630564 13.7606 0.384423 13.9575C0.138281 14.1545 0 14.4215 0 14.7V17.85C0 18.6854 0.414843 19.4866 1.15327 20.0774C1.89169 20.6681 2.89321 21 3.9375 21H17.0625C18.1068 21 19.1083 20.6681 19.8467 20.0774C20.5852 19.4866 21 18.6854 21 17.85V3.15C21 2.31457 20.5852 1.51335 19.8467 0.922614C19.1083 0.331874 18.1068 0 17.0625 0Z" fill="white"/>
</svg>
